%TF.GenerationSoftware,KiCad,Pcbnew,(5.1.9)-1*%
%TF.CreationDate,2021-04-23T22:48:30+02:00*%
%TF.ProjectId,test,74657374-2e6b-4696-9361-645f70636258,rev?*%
%TF.SameCoordinates,Original*%
%TF.FileFunction,Soldermask,Top*%
%TF.FilePolarity,Negative*%
%FSLAX46Y46*%
G04 Gerber Fmt 4.6, Leading zero omitted, Abs format (unit mm)*
G04 Created by KiCad (PCBNEW (5.1.9)-1) date 2021-04-23 22:48:30*
%MOMM*%
%LPD*%
G01*
G04 APERTURE LIST*
%ADD10R,1.000000X2.500000*%
%ADD11R,1.800000X1.000000*%
%ADD12R,1.200000X1.900000*%
%ADD13O,1.200000X1.900000*%
%ADD14R,1.500000X1.900000*%
%ADD15C,1.450000*%
%ADD16R,0.400000X1.350000*%
%ADD17C,1.524000*%
%ADD18C,2.300000*%
%ADD19R,2.300000X2.300000*%
%ADD20C,1.700000*%
%ADD21R,1.700000X1.700000*%
%ADD22R,1.524000X1.524000*%
%ADD23R,1.500000X2.000000*%
%ADD24R,3.800000X2.000000*%
G04 APERTURE END LIST*
D10*
%TO.C,ESP1*%
X15500000Y-26400000D03*
X17500000Y-26400000D03*
X19500000Y-26400000D03*
X21500000Y-26400000D03*
X23500000Y-26400000D03*
X25500000Y-26400000D03*
X27500000Y-26400000D03*
X29500000Y-26400000D03*
D11*
X31000000Y-29000000D03*
X31000000Y-31000000D03*
X31000000Y-33000000D03*
X31000000Y-35000000D03*
X31000000Y-37000000D03*
X31000000Y-39000000D03*
D10*
X29500000Y-41600000D03*
X27500000Y-41600000D03*
X25500000Y-41600000D03*
X23500000Y-41600000D03*
X21500000Y-41600000D03*
X19500000Y-41600000D03*
X17500000Y-41600000D03*
X15500000Y-41600000D03*
%TD*%
%TO.C,C4.7uF2*%
G36*
G01*
X34550000Y-21500000D02*
X33450000Y-21500000D01*
G75*
G02*
X33200000Y-21250000I0J250000D01*
G01*
X33200000Y-19150000D01*
G75*
G02*
X33450000Y-18900000I250000J0D01*
G01*
X34550000Y-18900000D01*
G75*
G02*
X34800000Y-19150000I0J-250000D01*
G01*
X34800000Y-21250000D01*
G75*
G02*
X34550000Y-21500000I-250000J0D01*
G01*
G37*
G36*
G01*
X34550000Y-25100000D02*
X33450000Y-25100000D01*
G75*
G02*
X33200000Y-24850000I0J250000D01*
G01*
X33200000Y-22750000D01*
G75*
G02*
X33450000Y-22500000I250000J0D01*
G01*
X34550000Y-22500000D01*
G75*
G02*
X34800000Y-22750000I0J-250000D01*
G01*
X34800000Y-24850000D01*
G75*
G02*
X34550000Y-25100000I-250000J0D01*
G01*
G37*
%TD*%
%TO.C,C4.7uF1*%
G36*
G01*
X15450000Y-20500000D02*
X16550000Y-20500000D01*
G75*
G02*
X16800000Y-20750000I0J-250000D01*
G01*
X16800000Y-22850000D01*
G75*
G02*
X16550000Y-23100000I-250000J0D01*
G01*
X15450000Y-23100000D01*
G75*
G02*
X15200000Y-22850000I0J250000D01*
G01*
X15200000Y-20750000D01*
G75*
G02*
X15450000Y-20500000I250000J0D01*
G01*
G37*
G36*
G01*
X15450000Y-16900000D02*
X16550000Y-16900000D01*
G75*
G02*
X16800000Y-17150000I0J-250000D01*
G01*
X16800000Y-19250000D01*
G75*
G02*
X16550000Y-19500000I-250000J0D01*
G01*
X15450000Y-19500000D01*
G75*
G02*
X15200000Y-19250000I0J250000D01*
G01*
X15200000Y-17150000D01*
G75*
G02*
X15450000Y-16900000I250000J0D01*
G01*
G37*
%TD*%
D12*
%TO.C,USB1*%
X30900000Y-15762500D03*
X25100000Y-15762500D03*
D13*
X24500000Y-15762500D03*
X31500000Y-15762500D03*
D14*
X29000000Y-15762500D03*
D15*
X25500000Y-18462500D03*
D16*
X28000000Y-18462500D03*
X27350000Y-18462500D03*
X26700000Y-18462500D03*
X29300000Y-18462500D03*
X28650000Y-18462500D03*
D15*
X30500000Y-18462500D03*
D14*
X27000000Y-15762500D03*
%TD*%
%TO.C,R10k4*%
G36*
G01*
X34600000Y-26549999D02*
X34600000Y-27450001D01*
G75*
G02*
X34350001Y-27700000I-249999J0D01*
G01*
X33649999Y-27700000D01*
G75*
G02*
X33400000Y-27450001I0J249999D01*
G01*
X33400000Y-26549999D01*
G75*
G02*
X33649999Y-26300000I249999J0D01*
G01*
X34350001Y-26300000D01*
G75*
G02*
X34600000Y-26549999I0J-249999D01*
G01*
G37*
G36*
G01*
X36600000Y-26549999D02*
X36600000Y-27450001D01*
G75*
G02*
X36350001Y-27700000I-249999J0D01*
G01*
X35649999Y-27700000D01*
G75*
G02*
X35400000Y-27450001I0J249999D01*
G01*
X35400000Y-26549999D01*
G75*
G02*
X35649999Y-26300000I249999J0D01*
G01*
X36350001Y-26300000D01*
G75*
G02*
X36600000Y-26549999I0J-249999D01*
G01*
G37*
%TD*%
%TO.C,R10k3*%
G36*
G01*
X36600000Y-15549999D02*
X36600000Y-16450001D01*
G75*
G02*
X36350001Y-16700000I-249999J0D01*
G01*
X35649999Y-16700000D01*
G75*
G02*
X35400000Y-16450001I0J249999D01*
G01*
X35400000Y-15549999D01*
G75*
G02*
X35649999Y-15300000I249999J0D01*
G01*
X36350001Y-15300000D01*
G75*
G02*
X36600000Y-15549999I0J-249999D01*
G01*
G37*
G36*
G01*
X38600000Y-15549999D02*
X38600000Y-16450001D01*
G75*
G02*
X38350001Y-16700000I-249999J0D01*
G01*
X37649999Y-16700000D01*
G75*
G02*
X37400000Y-16450001I0J249999D01*
G01*
X37400000Y-15549999D01*
G75*
G02*
X37649999Y-15300000I249999J0D01*
G01*
X38350001Y-15300000D01*
G75*
G02*
X38600000Y-15549999I0J-249999D01*
G01*
G37*
%TD*%
%TO.C,R10k2*%
G36*
G01*
X34600000Y-28549999D02*
X34600000Y-29450001D01*
G75*
G02*
X34350001Y-29700000I-249999J0D01*
G01*
X33649999Y-29700000D01*
G75*
G02*
X33400000Y-29450001I0J249999D01*
G01*
X33400000Y-28549999D01*
G75*
G02*
X33649999Y-28300000I249999J0D01*
G01*
X34350001Y-28300000D01*
G75*
G02*
X34600000Y-28549999I0J-249999D01*
G01*
G37*
G36*
G01*
X36600000Y-28549999D02*
X36600000Y-29450001D01*
G75*
G02*
X36350001Y-29700000I-249999J0D01*
G01*
X35649999Y-29700000D01*
G75*
G02*
X35400000Y-29450001I0J249999D01*
G01*
X35400000Y-28549999D01*
G75*
G02*
X35649999Y-28300000I249999J0D01*
G01*
X36350001Y-28300000D01*
G75*
G02*
X36600000Y-28549999I0J-249999D01*
G01*
G37*
%TD*%
%TO.C,R10k1*%
G36*
G01*
X33600000Y-42549999D02*
X33600000Y-43450001D01*
G75*
G02*
X33350001Y-43700000I-249999J0D01*
G01*
X32649999Y-43700000D01*
G75*
G02*
X32400000Y-43450001I0J249999D01*
G01*
X32400000Y-42549999D01*
G75*
G02*
X32649999Y-42300000I249999J0D01*
G01*
X33350001Y-42300000D01*
G75*
G02*
X33600000Y-42549999I0J-249999D01*
G01*
G37*
G36*
G01*
X35600000Y-42549999D02*
X35600000Y-43450001D01*
G75*
G02*
X35350001Y-43700000I-249999J0D01*
G01*
X34649999Y-43700000D01*
G75*
G02*
X34400000Y-43450001I0J249999D01*
G01*
X34400000Y-42549999D01*
G75*
G02*
X34649999Y-42300000I249999J0D01*
G01*
X35350001Y-42300000D01*
G75*
G02*
X35600000Y-42549999I0J-249999D01*
G01*
G37*
%TD*%
%TO.C,R470*%
G36*
G01*
X36600000Y-17549999D02*
X36600000Y-18450001D01*
G75*
G02*
X36350001Y-18700000I-249999J0D01*
G01*
X35649999Y-18700000D01*
G75*
G02*
X35400000Y-18450001I0J249999D01*
G01*
X35400000Y-17549999D01*
G75*
G02*
X35649999Y-17300000I249999J0D01*
G01*
X36350001Y-17300000D01*
G75*
G02*
X36600000Y-17549999I0J-249999D01*
G01*
G37*
G36*
G01*
X38600000Y-17549999D02*
X38600000Y-18450001D01*
G75*
G02*
X38350001Y-18700000I-249999J0D01*
G01*
X37649999Y-18700000D01*
G75*
G02*
X37400000Y-18450001I0J249999D01*
G01*
X37400000Y-17549999D01*
G75*
G02*
X37649999Y-17300000I249999J0D01*
G01*
X38350001Y-17300000D01*
G75*
G02*
X38600000Y-17549999I0J-249999D01*
G01*
G37*
%TD*%
D17*
%TO.C,Prog1*%
X33000000Y-45000000D03*
X33000000Y-49000000D03*
%TD*%
%TO.C,Enable1*%
X40000000Y-21000000D03*
X40000000Y-25000000D03*
%TD*%
D18*
%TO.C,ConnProg1*%
X27500000Y-47000000D03*
X24000000Y-47000000D03*
X20500000Y-47000000D03*
D19*
X17000000Y-47000000D03*
%TD*%
D20*
%TO.C,ConnMFRC1*%
X71000000Y-42500000D03*
X71000000Y-40000000D03*
X71000000Y-37500000D03*
X71000000Y-35000000D03*
X71000000Y-32500000D03*
X71000000Y-30000000D03*
X71000000Y-27500000D03*
D21*
X71000000Y-25000000D03*
%TD*%
D17*
%TO.C,Beeper1*%
X45000000Y-33000000D03*
D22*
X45000000Y-28000000D03*
%TD*%
D23*
%TO.C,AMS1117*%
X40300000Y-32850000D03*
X35700000Y-32850000D03*
X38000000Y-32850000D03*
D24*
X38000000Y-39150000D03*
%TD*%
M02*
