%TF.GenerationSoftware,KiCad,Pcbnew,(5.1.9)-1*%
%TF.CreationDate,2021-04-23T22:48:30+02:00*%
%TF.ProjectId,test,74657374-2e6b-4696-9361-645f70636258,rev?*%
%TF.SameCoordinates,Original*%
%TF.FileFunction,Copper,L2,Bot*%
%TF.FilePolarity,Positive*%
%FSLAX46Y46*%
G04 Gerber Fmt 4.6, Leading zero omitted, Abs format (unit mm)*
G04 Created by KiCad (PCBNEW (5.1.9)-1) date 2021-04-23 22:48:30*
%MOMM*%
%LPD*%
G01*
G04 APERTURE LIST*
%TA.AperFunction,ComponentPad*%
%ADD10O,1.200000X1.900000*%
%TD*%
%TA.AperFunction,ComponentPad*%
%ADD11C,1.450000*%
%TD*%
%TA.AperFunction,ComponentPad*%
%ADD12C,1.524000*%
%TD*%
%TA.AperFunction,ComponentPad*%
%ADD13C,2.300000*%
%TD*%
%TA.AperFunction,ComponentPad*%
%ADD14R,2.300000X2.300000*%
%TD*%
%TA.AperFunction,ComponentPad*%
%ADD15C,1.700000*%
%TD*%
%TA.AperFunction,ComponentPad*%
%ADD16R,1.700000X1.700000*%
%TD*%
%TA.AperFunction,ComponentPad*%
%ADD17R,1.524000X1.524000*%
%TD*%
%TA.AperFunction,ViaPad*%
%ADD18C,0.800000*%
%TD*%
%TA.AperFunction,Conductor*%
%ADD19C,0.250000*%
%TD*%
G04 APERTURE END LIST*
D10*
%TO.P,USB1,6*%
%TO.N,Net-(USB1-Pad6)*%
X24500000Y-15762500D03*
X31500000Y-15762500D03*
D11*
X25500000Y-18462500D03*
X30500000Y-18462500D03*
%TD*%
D12*
%TO.P,Prog1,2*%
%TO.N,Net-(ESP1-Pad3)*%
X33000000Y-45000000D03*
%TO.P,Prog1,1*%
%TO.N,Net-(AMS1117-Pad1)*%
X33000000Y-49000000D03*
%TD*%
%TO.P,Enable1,2*%
%TO.N,Net-(Enable1-Pad2)*%
X40000000Y-21000000D03*
%TO.P,Enable1,1*%
%TO.N,Net-(ESP1-Pad12)*%
X40000000Y-25000000D03*
%TD*%
D13*
%TO.P,ConnProg1,4*%
%TO.N,Net-(AMS1117-Pad1)*%
X27500000Y-47000000D03*
%TO.P,ConnProg1,3*%
%TO.N,Net-(ConnProg1-Pad3)*%
X24000000Y-47000000D03*
%TO.P,ConnProg1,2*%
%TO.N,Net-(ConnProg1-Pad2)*%
X20500000Y-47000000D03*
D14*
%TO.P,ConnProg1,1*%
%TO.N,Net-(AMS1117-Pad2)*%
X17000000Y-47000000D03*
%TD*%
D15*
%TO.P,ConnMFRC1,8*%
%TO.N,Net-(ConnMFRC1-Pad8)*%
X71000000Y-42500000D03*
%TO.P,ConnMFRC1,7*%
%TO.N,Net-(ConnMFRC1-Pad7)*%
X71000000Y-40000000D03*
%TO.P,ConnMFRC1,6*%
%TO.N,Net-(ConnMFRC1-Pad6)*%
X71000000Y-37500000D03*
%TO.P,ConnMFRC1,5*%
%TO.N,Net-(ConnMFRC1-Pad5)*%
X71000000Y-35000000D03*
%TO.P,ConnMFRC1,4*%
%TO.N,Net-(ConnMFRC1-Pad4)*%
X71000000Y-32500000D03*
%TO.P,ConnMFRC1,3*%
%TO.N,Net-(AMS1117-Pad1)*%
X71000000Y-30000000D03*
%TO.P,ConnMFRC1,2*%
%TO.N,Net-(ConnMFRC1-Pad2)*%
X71000000Y-27500000D03*
D16*
%TO.P,ConnMFRC1,1*%
%TO.N,Net-(AMS1117-Pad2)*%
X71000000Y-25000000D03*
%TD*%
D12*
%TO.P,Beeper1,2*%
%TO.N,Net-(AMS1117-Pad1)*%
X45000000Y-33000000D03*
D17*
%TO.P,Beeper1,1*%
%TO.N,Net-(Beeper1-Pad1)*%
X45000000Y-28000000D03*
%TD*%
D18*
%TO.N,Net-(AMS1117-Pad1)*%
X31000000Y-45000000D03*
X33000000Y-28000000D03*
X40000000Y-28000000D03*
%TO.N,Net-(AMS1117-Pad3)*%
X21000000Y-19000000D03*
X22000000Y-32000000D03*
X28000000Y-33000000D03*
X34000000Y-33000000D03*
%TO.N,Net-(Beeper1-Pad1)*%
X28000000Y-31000000D03*
%TO.N,Net-(ConnMFRC1-Pad8)*%
X40000000Y-16000000D03*
X27847502Y-24000000D03*
%TO.N,Net-(ConnMFRC1-Pad7)*%
X44000000Y-42000000D03*
X21987347Y-38012653D03*
%TO.N,Net-(ConnMFRC1-Pad6)*%
X44000000Y-39000000D03*
X29000000Y-39000000D03*
%TO.N,Net-(ConnMFRC1-Pad5)*%
X44000000Y-36000000D03*
X29000000Y-36000000D03*
%TO.N,Net-(ConnMFRC1-Pad2)*%
X48000000Y-26000000D03*
X24987347Y-29987347D03*
%TO.N,Net-(ConnProg1-Pad3)*%
X24000000Y-39000000D03*
%TO.N,Net-(ConnProg1-Pad2)*%
X20000000Y-39000000D03*
%TO.N,Net-(ESP1-Pad12)*%
X26000000Y-24000000D03*
%TO.N,Net-(ESP1-Pad3)*%
X29000000Y-44000000D03*
X31000000Y-44000000D03*
%TO.N,Net-(ESP1-Pad1)*%
X38000000Y-29000000D03*
X17000000Y-39000000D03*
%TD*%
D19*
%TO.N,Net-(AMS1117-Pad1)*%
X29500000Y-45000000D02*
X27500000Y-47000000D01*
X31000000Y-45000000D02*
X29500000Y-45000000D01*
X33000000Y-28000000D02*
X40000000Y-28000000D01*
%TO.N,Net-(AMS1117-Pad3)*%
X21000000Y-31000000D02*
X22000000Y-32000000D01*
X21000000Y-19000000D02*
X21000000Y-31000000D01*
X28000000Y-33000000D02*
X33000000Y-33000000D01*
X33000000Y-33000000D02*
X34000000Y-33000000D01*
%TO.N,Net-(Beeper1-Pad1)*%
X42000000Y-31000000D02*
X45000000Y-28000000D01*
X28000000Y-31000000D02*
X42000000Y-31000000D01*
%TO.N,Net-(ConnMFRC1-Pad8)*%
X35847502Y-16000000D02*
X27847502Y-24000000D01*
X39000000Y-16000000D02*
X35847502Y-16000000D01*
X39000000Y-16000000D02*
X40000000Y-16000000D01*
X44500000Y-16000000D02*
X71000000Y-42500000D01*
X40000000Y-16000000D02*
X44500000Y-16000000D01*
%TO.N,Net-(ConnMFRC1-Pad7)*%
X24085655Y-38012653D02*
X21987347Y-38012653D01*
X28073002Y-42000000D02*
X24085655Y-38012653D01*
X44000000Y-42000000D02*
X28073002Y-42000000D01*
%TO.N,Net-(ConnMFRC1-Pad6)*%
X44000000Y-39000000D02*
X29000000Y-39000000D01*
%TO.N,Net-(ConnMFRC1-Pad5)*%
X44000000Y-36000000D02*
X29000000Y-36000000D01*
%TO.N,Net-(ConnMFRC1-Pad2)*%
X48000000Y-26000000D02*
X44912999Y-26000000D01*
X44912999Y-26000000D02*
X42000000Y-26000000D01*
X42000000Y-26000000D02*
X41000000Y-27000000D01*
X27974694Y-27000000D02*
X24987347Y-29987347D01*
X41000000Y-27000000D02*
X27974694Y-27000000D01*
%TO.N,Net-(ConnProg1-Pad3)*%
X24000000Y-47000000D02*
X24000000Y-39000000D01*
%TO.N,Net-(ConnProg1-Pad2)*%
X20500000Y-39500000D02*
X20000000Y-39000000D01*
X20500000Y-47000000D02*
X20500000Y-39500000D01*
%TO.N,Net-(ESP1-Pad12)*%
X26774500Y-24000000D02*
X26000000Y-24000000D01*
X27774500Y-25000000D02*
X26774500Y-24000000D01*
X40000000Y-25000000D02*
X27774500Y-25000000D01*
%TO.N,Net-(ESP1-Pad3)*%
X29000000Y-44000000D02*
X31000000Y-44000000D01*
%TO.N,Net-(ESP1-Pad1)*%
X27000000Y-29000000D02*
X17000000Y-39000000D01*
X38000000Y-29000000D02*
X27000000Y-29000000D01*
%TD*%
M02*
