M48
; DRILL file {KiCad (5.1.9)-1} date 04/23/21 22:48:22
; FORMAT={-:-/ absolute / inch / decimal}
; #@! TF.CreationDate,2021-04-23T22:48:22+02:00
; #@! TF.GenerationSoftware,Kicad,Pcbnew,(5.1.9)-1
; #@! TF.FileFunction,Plated,1,2,PTH
FMAT,2
INCH
T1C0.0157
T2C0.0236
T3C0.0300
T4C0.0335
T5C0.0472
%
G90
G05
T1
X0.6693Y-1.5354
X0.7874Y-1.5354
X0.8268Y-0.748
X0.8656Y-1.4966
X0.8661Y-1.2598
X0.9449Y-1.5354
X0.9838Y-1.1806
X1.0236Y-0.9449
X1.0964Y-0.9449
X1.1024Y-1.2205
X1.1024Y-1.2992
X1.1417Y-1.4173
X1.1417Y-1.5354
X1.1417Y-1.7323
X1.2205Y-1.7323
X1.2205Y-1.7717
X1.2992Y-1.1024
X1.3386Y-1.2992
X1.4961Y-1.1417
X1.5748Y-0.6299
X1.5748Y-1.1024
X1.7323Y-1.4173
X1.7323Y-1.5354
X1.7323Y-1.6535
X1.8898Y-1.0236
T3
X1.2992Y-1.7717
X1.2992Y-1.9291
X1.5748Y-0.8268
X1.5748Y-0.9843
X1.7717Y-1.1024
X1.7717Y-1.2992
X2.7953Y-0.9843
X2.7953Y-1.0827
X2.7953Y-1.1811
X2.7953Y-1.2795
X2.7953Y-1.378
X2.7953Y-1.4764
X2.7953Y-1.5748
X2.7953Y-1.6732
T4
X1.0039Y-0.7269
X1.2008Y-0.7269
T5
X0.6693Y-1.8504
X0.8071Y-1.8504
X0.9449Y-1.8504
X1.0827Y-1.8504
T2
G00X0.9646Y-0.6344
M15
G01X0.9646Y-0.6068
M16
G05
G00X1.2402Y-0.6068
M15
G01X1.2402Y-0.6344
M16
G05
T0
M30
