%TF.GenerationSoftware,KiCad,Pcbnew,(5.1.9)-1*%
%TF.CreationDate,2021-04-23T22:48:30+02:00*%
%TF.ProjectId,test,74657374-2e6b-4696-9361-645f70636258,rev?*%
%TF.SameCoordinates,Original*%
%TF.FileFunction,Legend,Top*%
%TF.FilePolarity,Positive*%
%FSLAX46Y46*%
G04 Gerber Fmt 4.6, Leading zero omitted, Abs format (unit mm)*
G04 Created by KiCad (PCBNEW (5.1.9)-1) date 2021-04-23 22:48:30*
%MOMM*%
%LPD*%
G01*
G04 APERTURE LIST*
%ADD10C,0.120000*%
%ADD11C,0.150000*%
G04 APERTURE END LIST*
D10*
%TO.C,ESP1*%
X14500000Y-42120000D02*
X14500000Y-42730000D01*
X14500000Y-42120000D02*
X6880000Y-42120000D01*
X31120000Y-42120000D02*
X30500000Y-42120000D01*
X31120000Y-40000000D02*
X31120000Y-42120000D01*
X31120000Y-25880000D02*
X31120000Y-28000000D01*
X30500000Y-25880000D02*
X31120000Y-25880000D01*
X6880000Y-25880000D02*
X14500000Y-25880000D01*
X6880000Y-42120000D02*
X6880000Y-25880000D01*
%TO.C,C4.7uF2*%
X36260000Y-19740000D02*
X35060000Y-19740000D01*
X31740000Y-19740000D02*
X32940000Y-19740000D01*
X31740000Y-23195563D02*
X31740000Y-19740000D01*
X36260000Y-23195563D02*
X36260000Y-19740000D01*
X35195563Y-24260000D02*
X35060000Y-24260000D01*
X32804437Y-24260000D02*
X32940000Y-24260000D01*
X32804437Y-24260000D02*
X31740000Y-23195563D01*
X35195563Y-24260000D02*
X36260000Y-23195563D01*
X32440000Y-25000000D02*
X32440000Y-24500000D01*
X32190000Y-24750000D02*
X32690000Y-24750000D01*
%TO.C,C4.7uF1*%
X13740000Y-22260000D02*
X14940000Y-22260000D01*
X18260000Y-22260000D02*
X17060000Y-22260000D01*
X18260000Y-18804437D02*
X18260000Y-22260000D01*
X13740000Y-18804437D02*
X13740000Y-22260000D01*
X14804437Y-17740000D02*
X14940000Y-17740000D01*
X17195563Y-17740000D02*
X17060000Y-17740000D01*
X17195563Y-17740000D02*
X18260000Y-18804437D01*
X14804437Y-17740000D02*
X13740000Y-18804437D01*
X17560000Y-17000000D02*
X17560000Y-17500000D01*
X17810000Y-17250000D02*
X17310000Y-17250000D01*
%TO.C,USB1*%
X31900000Y-18762500D02*
X31450000Y-18762500D01*
X31900000Y-16912500D02*
X31900000Y-18762500D01*
X24100000Y-14362500D02*
X24100000Y-14612500D01*
X31900000Y-14362500D02*
X31900000Y-14612500D01*
X24100000Y-16912500D02*
X24100000Y-18762500D01*
X24100000Y-18762500D02*
X24550000Y-18762500D01*
X29700000Y-19312500D02*
X29250000Y-19312500D01*
X29700000Y-19312500D02*
X29700000Y-18862500D01*
%TO.C,R10k4*%
X35227064Y-27735000D02*
X34772936Y-27735000D01*
X35227064Y-26265000D02*
X34772936Y-26265000D01*
%TO.C,R10k3*%
X37227064Y-16735000D02*
X36772936Y-16735000D01*
X37227064Y-15265000D02*
X36772936Y-15265000D01*
%TO.C,R10k2*%
X35227064Y-29735000D02*
X34772936Y-29735000D01*
X35227064Y-28265000D02*
X34772936Y-28265000D01*
%TO.C,R10k1*%
X34227064Y-43735000D02*
X33772936Y-43735000D01*
X34227064Y-42265000D02*
X33772936Y-42265000D01*
%TO.C,R470*%
X37227064Y-18735000D02*
X36772936Y-18735000D01*
X37227064Y-17265000D02*
X36772936Y-17265000D01*
%TO.C,Prog1*%
X36000000Y-50000000D02*
X30000000Y-50000000D01*
X30000000Y-50000000D02*
X30000000Y-44000000D01*
X30000000Y-44000000D02*
X36000000Y-44000000D01*
X36000000Y-44000000D02*
X36000000Y-50000000D01*
%TO.C,Enable1*%
X43000000Y-26000000D02*
X37000000Y-26000000D01*
X37000000Y-26000000D02*
X37000000Y-20000000D01*
X37000000Y-20000000D02*
X43000000Y-20000000D01*
X43000000Y-20000000D02*
X43000000Y-26000000D01*
%TO.C,ConnProg1*%
X17026444Y-48555681D02*
G75*
G02*
X16293000Y-48386000I-26444J1555681D01*
G01*
X15613355Y-47705733D02*
G75*
G02*
X15614000Y-46293000I1386645J705733D01*
G01*
X16294267Y-45613355D02*
G75*
G02*
X17707000Y-45614000I705733J-1386645D01*
G01*
X18386645Y-46294267D02*
G75*
G02*
X18386000Y-47707000I-1386645J-705733D01*
G01*
X17705955Y-48385515D02*
G75*
G02*
X17000000Y-48555000I-705955J1385515D01*
G01*
X22055000Y-47000000D02*
G75*
G03*
X22055000Y-47000000I-1555000J0D01*
G01*
X25555000Y-47000000D02*
G75*
G03*
X25555000Y-47000000I-1555000J0D01*
G01*
X29055000Y-47000000D02*
G75*
G03*
X29055000Y-47000000I-1555000J0D01*
G01*
X15190000Y-49200000D02*
X29310000Y-49200000D01*
X15190000Y-44140000D02*
X29310000Y-44140000D01*
X15190000Y-50760000D02*
X29310000Y-50760000D01*
X15190000Y-44140000D02*
X15190000Y-50760000D01*
X29310000Y-44140000D02*
X29310000Y-50760000D01*
X21680000Y-46010000D02*
X21604000Y-46086000D01*
X19565000Y-48125000D02*
X19511000Y-48180000D01*
X21490000Y-45820000D02*
X21436000Y-45874000D01*
X19397000Y-47914000D02*
X19321000Y-47990000D01*
X25180000Y-46010000D02*
X25104000Y-46086000D01*
X23065000Y-48125000D02*
X23011000Y-48180000D01*
X24990000Y-45820000D02*
X24936000Y-45874000D01*
X22897000Y-47914000D02*
X22821000Y-47990000D01*
X28680000Y-46010000D02*
X28604000Y-46086000D01*
X26565000Y-48125000D02*
X26511000Y-48180000D01*
X28490000Y-45820000D02*
X28436000Y-45874000D01*
X26397000Y-47914000D02*
X26321000Y-47990000D01*
X14950000Y-49260000D02*
X14950000Y-51000000D01*
X14950000Y-51000000D02*
X16450000Y-51000000D01*
%TO.C,ConnMFRC1*%
X72200000Y-24000000D02*
X70000000Y-24000000D01*
X70000000Y-24000000D02*
X70000000Y-43600000D01*
X70000000Y-43600000D02*
X72200000Y-43600000D01*
X72200000Y-43600000D02*
X72200000Y-24000000D01*
%TO.C,AMS1117*%
X34590000Y-37910000D02*
X35850000Y-37910000D01*
X41410000Y-37910000D02*
X40150000Y-37910000D01*
X34590000Y-34150000D02*
X34590000Y-37910000D01*
X41410000Y-31900000D02*
X41410000Y-37910000D01*
%TO.C,ESP1*%
D11*
X13668571Y-46226666D02*
X13668571Y-45893333D01*
X14192380Y-45750476D02*
X14192380Y-46226666D01*
X13192380Y-46226666D01*
X13192380Y-45750476D01*
X14144761Y-45369523D02*
X14192380Y-45226666D01*
X14192380Y-44988571D01*
X14144761Y-44893333D01*
X14097142Y-44845714D01*
X14001904Y-44798095D01*
X13906666Y-44798095D01*
X13811428Y-44845714D01*
X13763809Y-44893333D01*
X13716190Y-44988571D01*
X13668571Y-45179047D01*
X13620952Y-45274285D01*
X13573333Y-45321904D01*
X13478095Y-45369523D01*
X13382857Y-45369523D01*
X13287619Y-45321904D01*
X13240000Y-45274285D01*
X13192380Y-45179047D01*
X13192380Y-44940952D01*
X13240000Y-44798095D01*
X14192380Y-44369523D02*
X13192380Y-44369523D01*
X13192380Y-43988571D01*
X13240000Y-43893333D01*
X13287619Y-43845714D01*
X13382857Y-43798095D01*
X13525714Y-43798095D01*
X13620952Y-43845714D01*
X13668571Y-43893333D01*
X13716190Y-43988571D01*
X13716190Y-44369523D01*
X14192380Y-42845714D02*
X14192380Y-43417142D01*
X14192380Y-43131428D02*
X13192380Y-43131428D01*
X13335238Y-43226666D01*
X13430476Y-43321904D01*
X13478095Y-43417142D01*
%TO.C,C4.7uF2*%
X31157142Y-24238095D02*
X31204761Y-24285714D01*
X31252380Y-24428571D01*
X31252380Y-24523809D01*
X31204761Y-24666666D01*
X31109523Y-24761904D01*
X31014285Y-24809523D01*
X30823809Y-24857142D01*
X30680952Y-24857142D01*
X30490476Y-24809523D01*
X30395238Y-24761904D01*
X30300000Y-24666666D01*
X30252380Y-24523809D01*
X30252380Y-24428571D01*
X30300000Y-24285714D01*
X30347619Y-24238095D01*
X30585714Y-23380952D02*
X31252380Y-23380952D01*
X30204761Y-23619047D02*
X30919047Y-23857142D01*
X30919047Y-23238095D01*
X31157142Y-22857142D02*
X31204761Y-22809523D01*
X31252380Y-22857142D01*
X31204761Y-22904761D01*
X31157142Y-22857142D01*
X31252380Y-22857142D01*
X30252380Y-22476190D02*
X30252380Y-21809523D01*
X31252380Y-22238095D01*
X30585714Y-21000000D02*
X31252380Y-21000000D01*
X30585714Y-21428571D02*
X31109523Y-21428571D01*
X31204761Y-21380952D01*
X31252380Y-21285714D01*
X31252380Y-21142857D01*
X31204761Y-21047619D01*
X31157142Y-21000000D01*
X30728571Y-20190476D02*
X30728571Y-20523809D01*
X31252380Y-20523809D02*
X30252380Y-20523809D01*
X30252380Y-20047619D01*
X30347619Y-19714285D02*
X30300000Y-19666666D01*
X30252380Y-19571428D01*
X30252380Y-19333333D01*
X30300000Y-19238095D01*
X30347619Y-19190476D01*
X30442857Y-19142857D01*
X30538095Y-19142857D01*
X30680952Y-19190476D01*
X31252380Y-19761904D01*
X31252380Y-19142857D01*
%TO.C,C4.7uF1*%
X13761904Y-16357142D02*
X13714285Y-16404761D01*
X13571428Y-16452380D01*
X13476190Y-16452380D01*
X13333333Y-16404761D01*
X13238095Y-16309523D01*
X13190476Y-16214285D01*
X13142857Y-16023809D01*
X13142857Y-15880952D01*
X13190476Y-15690476D01*
X13238095Y-15595238D01*
X13333333Y-15500000D01*
X13476190Y-15452380D01*
X13571428Y-15452380D01*
X13714285Y-15500000D01*
X13761904Y-15547619D01*
X14619047Y-15785714D02*
X14619047Y-16452380D01*
X14380952Y-15404761D02*
X14142857Y-16119047D01*
X14761904Y-16119047D01*
X15142857Y-16357142D02*
X15190476Y-16404761D01*
X15142857Y-16452380D01*
X15095238Y-16404761D01*
X15142857Y-16357142D01*
X15142857Y-16452380D01*
X15523809Y-15452380D02*
X16190476Y-15452380D01*
X15761904Y-16452380D01*
X17000000Y-15785714D02*
X17000000Y-16452380D01*
X16571428Y-15785714D02*
X16571428Y-16309523D01*
X16619047Y-16404761D01*
X16714285Y-16452380D01*
X16857142Y-16452380D01*
X16952380Y-16404761D01*
X17000000Y-16357142D01*
X17809523Y-15928571D02*
X17476190Y-15928571D01*
X17476190Y-16452380D02*
X17476190Y-15452380D01*
X17952380Y-15452380D01*
X18857142Y-16452380D02*
X18285714Y-16452380D01*
X18571428Y-16452380D02*
X18571428Y-15452380D01*
X18476190Y-15595238D01*
X18380952Y-15690476D01*
X18285714Y-15738095D01*
%TO.C,USB1*%
X19261904Y-16452380D02*
X19261904Y-17261904D01*
X19309523Y-17357142D01*
X19357142Y-17404761D01*
X19452380Y-17452380D01*
X19642857Y-17452380D01*
X19738095Y-17404761D01*
X19785714Y-17357142D01*
X19833333Y-17261904D01*
X19833333Y-16452380D01*
X20261904Y-17404761D02*
X20404761Y-17452380D01*
X20642857Y-17452380D01*
X20738095Y-17404761D01*
X20785714Y-17357142D01*
X20833333Y-17261904D01*
X20833333Y-17166666D01*
X20785714Y-17071428D01*
X20738095Y-17023809D01*
X20642857Y-16976190D01*
X20452380Y-16928571D01*
X20357142Y-16880952D01*
X20309523Y-16833333D01*
X20261904Y-16738095D01*
X20261904Y-16642857D01*
X20309523Y-16547619D01*
X20357142Y-16500000D01*
X20452380Y-16452380D01*
X20690476Y-16452380D01*
X20833333Y-16500000D01*
X21595238Y-16928571D02*
X21738095Y-16976190D01*
X21785714Y-17023809D01*
X21833333Y-17119047D01*
X21833333Y-17261904D01*
X21785714Y-17357142D01*
X21738095Y-17404761D01*
X21642857Y-17452380D01*
X21261904Y-17452380D01*
X21261904Y-16452380D01*
X21595238Y-16452380D01*
X21690476Y-16500000D01*
X21738095Y-16547619D01*
X21785714Y-16642857D01*
X21785714Y-16738095D01*
X21738095Y-16833333D01*
X21690476Y-16880952D01*
X21595238Y-16928571D01*
X21261904Y-16928571D01*
X22785714Y-17452380D02*
X22214285Y-17452380D01*
X22500000Y-17452380D02*
X22500000Y-16452380D01*
X22404761Y-16595238D01*
X22309523Y-16690476D01*
X22214285Y-16738095D01*
%TO.C,Prog1*%
X31047619Y-51452380D02*
X31047619Y-50452380D01*
X31428571Y-50452380D01*
X31523809Y-50500000D01*
X31571428Y-50547619D01*
X31619047Y-50642857D01*
X31619047Y-50785714D01*
X31571428Y-50880952D01*
X31523809Y-50928571D01*
X31428571Y-50976190D01*
X31047619Y-50976190D01*
X32047619Y-51452380D02*
X32047619Y-50785714D01*
X32047619Y-50976190D02*
X32095238Y-50880952D01*
X32142857Y-50833333D01*
X32238095Y-50785714D01*
X32333333Y-50785714D01*
X32809523Y-51452380D02*
X32714285Y-51404761D01*
X32666666Y-51357142D01*
X32619047Y-51261904D01*
X32619047Y-50976190D01*
X32666666Y-50880952D01*
X32714285Y-50833333D01*
X32809523Y-50785714D01*
X32952380Y-50785714D01*
X33047619Y-50833333D01*
X33095238Y-50880952D01*
X33142857Y-50976190D01*
X33142857Y-51261904D01*
X33095238Y-51357142D01*
X33047619Y-51404761D01*
X32952380Y-51452380D01*
X32809523Y-51452380D01*
X34000000Y-50785714D02*
X34000000Y-51595238D01*
X33952380Y-51690476D01*
X33904761Y-51738095D01*
X33809523Y-51785714D01*
X33666666Y-51785714D01*
X33571428Y-51738095D01*
X34000000Y-51404761D02*
X33904761Y-51452380D01*
X33714285Y-51452380D01*
X33619047Y-51404761D01*
X33571428Y-51357142D01*
X33523809Y-51261904D01*
X33523809Y-50976190D01*
X33571428Y-50880952D01*
X33619047Y-50833333D01*
X33714285Y-50785714D01*
X33904761Y-50785714D01*
X34000000Y-50833333D01*
X35000000Y-51452380D02*
X34428571Y-51452380D01*
X34714285Y-51452380D02*
X34714285Y-50452380D01*
X34619047Y-50595238D01*
X34523809Y-50690476D01*
X34428571Y-50738095D01*
%TO.C,Enable1*%
X39261904Y-18928571D02*
X39595238Y-18928571D01*
X39738095Y-19452380D02*
X39261904Y-19452380D01*
X39261904Y-18452380D01*
X39738095Y-18452380D01*
X40166666Y-18785714D02*
X40166666Y-19452380D01*
X40166666Y-18880952D02*
X40214285Y-18833333D01*
X40309523Y-18785714D01*
X40452380Y-18785714D01*
X40547619Y-18833333D01*
X40595238Y-18928571D01*
X40595238Y-19452380D01*
X41500000Y-19452380D02*
X41500000Y-18928571D01*
X41452380Y-18833333D01*
X41357142Y-18785714D01*
X41166666Y-18785714D01*
X41071428Y-18833333D01*
X41500000Y-19404761D02*
X41404761Y-19452380D01*
X41166666Y-19452380D01*
X41071428Y-19404761D01*
X41023809Y-19309523D01*
X41023809Y-19214285D01*
X41071428Y-19119047D01*
X41166666Y-19071428D01*
X41404761Y-19071428D01*
X41500000Y-19023809D01*
X41976190Y-19452380D02*
X41976190Y-18452380D01*
X41976190Y-18833333D02*
X42071428Y-18785714D01*
X42261904Y-18785714D01*
X42357142Y-18833333D01*
X42404761Y-18880952D01*
X42452380Y-18976190D01*
X42452380Y-19261904D01*
X42404761Y-19357142D01*
X42357142Y-19404761D01*
X42261904Y-19452380D01*
X42071428Y-19452380D01*
X41976190Y-19404761D01*
X43023809Y-19452380D02*
X42928571Y-19404761D01*
X42880952Y-19309523D01*
X42880952Y-18452380D01*
X43785714Y-19404761D02*
X43690476Y-19452380D01*
X43500000Y-19452380D01*
X43404761Y-19404761D01*
X43357142Y-19309523D01*
X43357142Y-18928571D01*
X43404761Y-18833333D01*
X43500000Y-18785714D01*
X43690476Y-18785714D01*
X43785714Y-18833333D01*
X43833333Y-18928571D01*
X43833333Y-19023809D01*
X43357142Y-19119047D01*
X44785714Y-19452380D02*
X44214285Y-19452380D01*
X44500000Y-19452380D02*
X44500000Y-18452380D01*
X44404761Y-18595238D01*
X44309523Y-18690476D01*
X44214285Y-18738095D01*
%TO.C,ConnProg1*%
X18761904Y-52357142D02*
X18714285Y-52404761D01*
X18571428Y-52452380D01*
X18476190Y-52452380D01*
X18333333Y-52404761D01*
X18238095Y-52309523D01*
X18190476Y-52214285D01*
X18142857Y-52023809D01*
X18142857Y-51880952D01*
X18190476Y-51690476D01*
X18238095Y-51595238D01*
X18333333Y-51500000D01*
X18476190Y-51452380D01*
X18571428Y-51452380D01*
X18714285Y-51500000D01*
X18761904Y-51547619D01*
X19333333Y-52452380D02*
X19238095Y-52404761D01*
X19190476Y-52357142D01*
X19142857Y-52261904D01*
X19142857Y-51976190D01*
X19190476Y-51880952D01*
X19238095Y-51833333D01*
X19333333Y-51785714D01*
X19476190Y-51785714D01*
X19571428Y-51833333D01*
X19619047Y-51880952D01*
X19666666Y-51976190D01*
X19666666Y-52261904D01*
X19619047Y-52357142D01*
X19571428Y-52404761D01*
X19476190Y-52452380D01*
X19333333Y-52452380D01*
X20095238Y-51785714D02*
X20095238Y-52452380D01*
X20095238Y-51880952D02*
X20142857Y-51833333D01*
X20238095Y-51785714D01*
X20380952Y-51785714D01*
X20476190Y-51833333D01*
X20523809Y-51928571D01*
X20523809Y-52452380D01*
X21000000Y-51785714D02*
X21000000Y-52452380D01*
X21000000Y-51880952D02*
X21047619Y-51833333D01*
X21142857Y-51785714D01*
X21285714Y-51785714D01*
X21380952Y-51833333D01*
X21428571Y-51928571D01*
X21428571Y-52452380D01*
X21904761Y-52452380D02*
X21904761Y-51452380D01*
X22285714Y-51452380D01*
X22380952Y-51500000D01*
X22428571Y-51547619D01*
X22476190Y-51642857D01*
X22476190Y-51785714D01*
X22428571Y-51880952D01*
X22380952Y-51928571D01*
X22285714Y-51976190D01*
X21904761Y-51976190D01*
X22904761Y-52452380D02*
X22904761Y-51785714D01*
X22904761Y-51976190D02*
X22952380Y-51880952D01*
X23000000Y-51833333D01*
X23095238Y-51785714D01*
X23190476Y-51785714D01*
X23666666Y-52452380D02*
X23571428Y-52404761D01*
X23523809Y-52357142D01*
X23476190Y-52261904D01*
X23476190Y-51976190D01*
X23523809Y-51880952D01*
X23571428Y-51833333D01*
X23666666Y-51785714D01*
X23809523Y-51785714D01*
X23904761Y-51833333D01*
X23952380Y-51880952D01*
X24000000Y-51976190D01*
X24000000Y-52261904D01*
X23952380Y-52357142D01*
X23904761Y-52404761D01*
X23809523Y-52452380D01*
X23666666Y-52452380D01*
X24857142Y-51785714D02*
X24857142Y-52595238D01*
X24809523Y-52690476D01*
X24761904Y-52738095D01*
X24666666Y-52785714D01*
X24523809Y-52785714D01*
X24428571Y-52738095D01*
X24857142Y-52404761D02*
X24761904Y-52452380D01*
X24571428Y-52452380D01*
X24476190Y-52404761D01*
X24428571Y-52357142D01*
X24380952Y-52261904D01*
X24380952Y-51976190D01*
X24428571Y-51880952D01*
X24476190Y-51833333D01*
X24571428Y-51785714D01*
X24761904Y-51785714D01*
X24857142Y-51833333D01*
X25857142Y-52452380D02*
X25285714Y-52452380D01*
X25571428Y-52452380D02*
X25571428Y-51452380D01*
X25476190Y-51595238D01*
X25380952Y-51690476D01*
X25285714Y-51738095D01*
%TO.C,ConnMFRC1*%
X69357142Y-37523809D02*
X69404761Y-37571428D01*
X69452380Y-37714285D01*
X69452380Y-37809523D01*
X69404761Y-37952380D01*
X69309523Y-38047619D01*
X69214285Y-38095238D01*
X69023809Y-38142857D01*
X68880952Y-38142857D01*
X68690476Y-38095238D01*
X68595238Y-38047619D01*
X68500000Y-37952380D01*
X68452380Y-37809523D01*
X68452380Y-37714285D01*
X68500000Y-37571428D01*
X68547619Y-37523809D01*
X69452380Y-36952380D02*
X69404761Y-37047619D01*
X69357142Y-37095238D01*
X69261904Y-37142857D01*
X68976190Y-37142857D01*
X68880952Y-37095238D01*
X68833333Y-37047619D01*
X68785714Y-36952380D01*
X68785714Y-36809523D01*
X68833333Y-36714285D01*
X68880952Y-36666666D01*
X68976190Y-36619047D01*
X69261904Y-36619047D01*
X69357142Y-36666666D01*
X69404761Y-36714285D01*
X69452380Y-36809523D01*
X69452380Y-36952380D01*
X68785714Y-36190476D02*
X69452380Y-36190476D01*
X68880952Y-36190476D02*
X68833333Y-36142857D01*
X68785714Y-36047619D01*
X68785714Y-35904761D01*
X68833333Y-35809523D01*
X68928571Y-35761904D01*
X69452380Y-35761904D01*
X68785714Y-35285714D02*
X69452380Y-35285714D01*
X68880952Y-35285714D02*
X68833333Y-35238095D01*
X68785714Y-35142857D01*
X68785714Y-35000000D01*
X68833333Y-34904761D01*
X68928571Y-34857142D01*
X69452380Y-34857142D01*
X69452380Y-34380952D02*
X68452380Y-34380952D01*
X69166666Y-34047619D01*
X68452380Y-33714285D01*
X69452380Y-33714285D01*
X68928571Y-32904761D02*
X68928571Y-33238095D01*
X69452380Y-33238095D02*
X68452380Y-33238095D01*
X68452380Y-32761904D01*
X69452380Y-31809523D02*
X68976190Y-32142857D01*
X69452380Y-32380952D02*
X68452380Y-32380952D01*
X68452380Y-32000000D01*
X68500000Y-31904761D01*
X68547619Y-31857142D01*
X68642857Y-31809523D01*
X68785714Y-31809523D01*
X68880952Y-31857142D01*
X68928571Y-31904761D01*
X68976190Y-32000000D01*
X68976190Y-32380952D01*
X69357142Y-30809523D02*
X69404761Y-30857142D01*
X69452380Y-31000000D01*
X69452380Y-31095238D01*
X69404761Y-31238095D01*
X69309523Y-31333333D01*
X69214285Y-31380952D01*
X69023809Y-31428571D01*
X68880952Y-31428571D01*
X68690476Y-31380952D01*
X68595238Y-31333333D01*
X68500000Y-31238095D01*
X68452380Y-31095238D01*
X68452380Y-31000000D01*
X68500000Y-30857142D01*
X68547619Y-30809523D01*
X69452380Y-29857142D02*
X69452380Y-30428571D01*
X69452380Y-30142857D02*
X68452380Y-30142857D01*
X68595238Y-30238095D01*
X68690476Y-30333333D01*
X68738095Y-30428571D01*
%TO.C,Beeper1*%
X49928571Y-32452380D02*
X49976190Y-32309523D01*
X50023809Y-32261904D01*
X50119047Y-32214285D01*
X50261904Y-32214285D01*
X50357142Y-32261904D01*
X50404761Y-32309523D01*
X50452380Y-32404761D01*
X50452380Y-32785714D01*
X49452380Y-32785714D01*
X49452380Y-32452380D01*
X49500000Y-32357142D01*
X49547619Y-32309523D01*
X49642857Y-32261904D01*
X49738095Y-32261904D01*
X49833333Y-32309523D01*
X49880952Y-32357142D01*
X49928571Y-32452380D01*
X49928571Y-32785714D01*
X50404761Y-31404761D02*
X50452380Y-31500000D01*
X50452380Y-31690476D01*
X50404761Y-31785714D01*
X50309523Y-31833333D01*
X49928571Y-31833333D01*
X49833333Y-31785714D01*
X49785714Y-31690476D01*
X49785714Y-31500000D01*
X49833333Y-31404761D01*
X49928571Y-31357142D01*
X50023809Y-31357142D01*
X50119047Y-31833333D01*
X50404761Y-30547619D02*
X50452380Y-30642857D01*
X50452380Y-30833333D01*
X50404761Y-30928571D01*
X50309523Y-30976190D01*
X49928571Y-30976190D01*
X49833333Y-30928571D01*
X49785714Y-30833333D01*
X49785714Y-30642857D01*
X49833333Y-30547619D01*
X49928571Y-30500000D01*
X50023809Y-30500000D01*
X50119047Y-30976190D01*
X49785714Y-30071428D02*
X50785714Y-30071428D01*
X49833333Y-30071428D02*
X49785714Y-29976190D01*
X49785714Y-29785714D01*
X49833333Y-29690476D01*
X49880952Y-29642857D01*
X49976190Y-29595238D01*
X50261904Y-29595238D01*
X50357142Y-29642857D01*
X50404761Y-29690476D01*
X50452380Y-29785714D01*
X50452380Y-29976190D01*
X50404761Y-30071428D01*
X50404761Y-28785714D02*
X50452380Y-28880952D01*
X50452380Y-29071428D01*
X50404761Y-29166666D01*
X50309523Y-29214285D01*
X49928571Y-29214285D01*
X49833333Y-29166666D01*
X49785714Y-29071428D01*
X49785714Y-28880952D01*
X49833333Y-28785714D01*
X49928571Y-28738095D01*
X50023809Y-28738095D01*
X50119047Y-29214285D01*
X50452380Y-28309523D02*
X49785714Y-28309523D01*
X49976190Y-28309523D02*
X49880952Y-28261904D01*
X49833333Y-28214285D01*
X49785714Y-28119047D01*
X49785714Y-28023809D01*
X50452380Y-27166666D02*
X50452380Y-27738095D01*
X50452380Y-27452380D02*
X49452380Y-27452380D01*
X49595238Y-27547619D01*
X49690476Y-27642857D01*
X49738095Y-27738095D01*
%TO.C,AMS1117*%
X42666666Y-39190476D02*
X42666666Y-38714285D01*
X42952380Y-39285714D02*
X41952380Y-38952380D01*
X42952380Y-38619047D01*
X42952380Y-38285714D02*
X41952380Y-38285714D01*
X42666666Y-37952380D01*
X41952380Y-37619047D01*
X42952380Y-37619047D01*
X42904761Y-37190476D02*
X42952380Y-37047619D01*
X42952380Y-36809523D01*
X42904761Y-36714285D01*
X42857142Y-36666666D01*
X42761904Y-36619047D01*
X42666666Y-36619047D01*
X42571428Y-36666666D01*
X42523809Y-36714285D01*
X42476190Y-36809523D01*
X42428571Y-37000000D01*
X42380952Y-37095238D01*
X42333333Y-37142857D01*
X42238095Y-37190476D01*
X42142857Y-37190476D01*
X42047619Y-37142857D01*
X42000000Y-37095238D01*
X41952380Y-37000000D01*
X41952380Y-36761904D01*
X42000000Y-36619047D01*
X42952380Y-35666666D02*
X42952380Y-36238095D01*
X42952380Y-35952380D02*
X41952380Y-35952380D01*
X42095238Y-36047619D01*
X42190476Y-36142857D01*
X42238095Y-36238095D01*
X42952380Y-34714285D02*
X42952380Y-35285714D01*
X42952380Y-35000000D02*
X41952380Y-35000000D01*
X42095238Y-35095238D01*
X42190476Y-35190476D01*
X42238095Y-35285714D01*
X42952380Y-33761904D02*
X42952380Y-34333333D01*
X42952380Y-34047619D02*
X41952380Y-34047619D01*
X42095238Y-34142857D01*
X42190476Y-34238095D01*
X42238095Y-34333333D01*
X41952380Y-33428571D02*
X41952380Y-32761904D01*
X42952380Y-33190476D01*
%TD*%
M02*
